<svg width="188" height="49" viewBox="0 0 188 49" fill="none" xmlns="http://www.w3.org/2000/svg">
<path d="M14.876 6.364C14.876 8.716 13.616 10.676 11.824 11.684C11.796 11.712 11.796 11.74 11.824 11.796L15.38 19.804C15.436 19.916 15.352 20 15.24 20H12.02C11.964 20 11.908 19.944 11.88 19.916L8.632 12.58C8.604 12.524 8.576 12.44 8.492 12.44H4.096C4.012 12.44 3.984 12.468 3.984 12.552V19.86C3.984 19.944 3.928 20 3.844 20H0.764C0.68 20 0.624 19.944 0.624 19.86V0.427998C0.624 0.343999 0.68 0.287998 0.764 0.287998H8.968C12.132 0.287998 14.876 2.948 14.876 6.364ZM4.124 9.36H8.8C10.228 9.304 11.544 7.988 11.544 6.364C11.544 4.712 10.172 3.368 8.688 3.368H4.096C4.012 3.368 3.984 3.424 3.984 3.48V9.22C3.984 9.304 4.04 9.36 4.124 9.36ZM35.9854 10.144C35.9854 16.08 33.0174 20.28 27.1094 20.28C21.2014 20.28 18.2334 16.08 18.2334 10.144C18.2334 4.208 21.2014 0.0079987 27.1094 0.0079987C33.0174 0.0079987 35.9854 4.208 35.9854 10.144ZM27.1094 17.2C30.5814 17.2 32.4854 14.54 32.4854 10.144C32.4854 5.748 30.5814 3.088 27.1094 3.088C23.6374 3.088 21.7334 5.748 21.7334 10.144C21.7334 14.54 23.6374 17.2 27.1094 17.2ZM54.6647 14.232C54.6647 17.928 51.7807 20.28 47.1047 20.28C41.5327 20.28 39.4327 17.228 39.4327 14.596C39.4327 14.512 39.4887 14.456 39.5727 14.456H42.7927C42.8767 14.456 42.9327 14.512 42.9327 14.596C42.9327 15.94 44.7247 17.2 47.1047 17.2C49.4287 17.2 51.1647 15.884 51.1647 14.232C51.1647 13 49.9887 11.796 47.1047 11.544C42.5127 11.124 39.5727 9.78 39.5727 5.832C39.5727 2.136 43.0447 0.0079987 46.5447 0.0079987C50.2687 0.0079987 53.6847 2.052 53.6847 5.692C53.6847 5.776 53.6287 5.832 53.5727 5.832H50.3247C50.2407 5.832 50.1847 5.776 50.1847 5.692C50.2127 4.488 48.8687 3.088 46.5447 3.088C44.6407 3.088 43.0727 4.32 43.0727 5.832C43.0727 7.54 45.1727 7.96 47.1047 8.184C50.0447 8.52 54.6647 9.136 54.6647 14.232ZM61.8014 16.92H72.1334C72.2174 16.92 72.2734 16.976 72.2734 17.06V19.86C72.2734 19.944 72.2174 20 72.1334 20H58.4414C58.3574 20 58.3014 19.944 58.3014 19.86V0.427998C58.3014 0.343999 58.3574 0.287998 58.4414 0.287998H72.1334C72.2174 0.287998 72.2734 0.343999 72.2734 0.427998V3.228C72.2734 3.312 72.2174 3.368 72.1334 3.368H61.8014C61.7174 3.368 61.6614 3.424 61.6614 3.508V8.324C61.6614 8.408 61.7174 8.464 61.8014 8.464H70.7334C70.8174 8.464 70.8734 8.52 70.8734 8.604V11.404C70.8734 11.488 70.8174 11.544 70.7334 11.544H61.8014C61.7174 11.544 61.6614 11.6 61.6614 11.684V16.78C61.6614 16.864 61.7174 16.92 61.8014 16.92ZM99.5478 14.232C99.5478 17.928 96.6638 20.28 91.9878 20.28C86.4158 20.28 84.3158 17.228 84.3158 14.596C84.3158 14.512 84.3718 14.456 84.4558 14.456H87.6758C87.7598 14.456 87.8158 14.512 87.8158 14.596C87.8158 15.94 89.6078 17.2 91.9878 17.2C94.3118 17.2 96.0478 15.884 96.0478 14.232C96.0478 13 94.8718 11.796 91.9878 11.544C87.3958 11.124 84.4558 9.78 84.4558 5.832C84.4558 2.136 87.9278 0.0079987 91.4278 0.0079987C95.1518 0.0079987 98.5678 2.052 98.5678 5.692C98.5678 5.776 98.5118 5.832 98.4558 5.832H95.2078C95.1238 5.832 95.0678 5.776 95.0678 5.692C95.0958 4.488 93.7518 3.088 91.4278 3.088C89.5238 3.088 87.9558 4.32 87.9558 5.832C87.9558 7.54 90.0558 7.96 91.9878 8.184C94.9278 8.52 99.5478 9.136 99.5478 14.232ZM110.583 3.508V19.86C110.583 19.944 110.527 20 110.443 20H107.363C107.279 20 107.223 19.944 107.223 19.86V3.508C107.223 3.424 107.167 3.368 107.083 3.368H101.903C101.819 3.368 101.763 3.312 101.763 3.228V0.427998C101.763 0.343999 101.819 0.287998 101.903 0.287998H115.903C115.987 0.287998 116.043 0.343999 116.043 0.427998V3.228C116.043 3.312 115.987 3.368 115.903 3.368H110.723C110.639 3.368 110.583 3.424 110.583 3.508ZM133.831 6.364C133.831 8.716 132.571 10.676 130.779 11.684C130.751 11.712 130.751 11.74 130.779 11.796L134.335 19.804C134.391 19.916 134.307 20 134.195 20H130.975C130.919 20 130.863 19.944 130.835 19.916L127.587 12.58C127.559 12.524 127.531 12.44 127.447 12.44H123.051C122.967 12.44 122.939 12.468 122.939 12.552V19.86C122.939 19.944 122.883 20 122.799 20H119.719C119.635 20 119.579 19.944 119.579 19.86V0.427998C119.579 0.343999 119.635 0.287998 119.719 0.287998H127.923C131.087 0.287998 133.831 2.948 133.831 6.364ZM123.079 9.36H127.755C129.183 9.304 130.499 7.988 130.499 6.364C130.499 4.712 129.127 3.368 127.643 3.368H123.051C122.967 3.368 122.939 3.424 122.939 3.48V9.22C122.939 9.304 122.995 9.36 123.079 9.36ZM141.41 16.92H151.742C151.826 16.92 151.882 16.976 151.882 17.06V19.86C151.882 19.944 151.826 20 151.742 20H138.05C137.966 20 137.91 19.944 137.91 19.86V0.427998C137.91 0.343999 137.966 0.287998 138.05 0.287998H151.742C151.826 0.287998 151.882 0.343999 151.882 0.427998V3.228C151.882 3.312 151.826 3.368 151.742 3.368H141.41C141.326 3.368 141.27 3.424 141.27 3.508V8.324C141.27 8.408 141.326 8.464 141.41 8.464H150.342C150.426 8.464 150.482 8.52 150.482 8.604V11.404C150.482 11.488 150.426 11.544 150.342 11.544H141.41C141.326 11.544 141.27 11.6 141.27 11.684V16.78C141.27 16.864 141.326 16.92 141.41 16.92ZM159.661 16.92H169.993C170.077 16.92 170.133 16.976 170.133 17.06V19.86C170.133 19.944 170.077 20 169.993 20H156.301C156.217 20 156.161 19.944 156.161 19.86V0.427998C156.161 0.343999 156.217 0.287998 156.301 0.287998H169.993C170.077 0.287998 170.133 0.343999 170.133 0.427998V3.228C170.133 3.312 170.077 3.368 169.993 3.368H159.661C159.577 3.368 159.521 3.424 159.521 3.508V8.324C159.521 8.408 159.577 8.464 159.661 8.464H168.593C168.677 8.464 168.733 8.52 168.733 8.604V11.404C168.733 11.488 168.677 11.544 168.593 11.544H159.661C159.577 11.544 159.521 11.6 159.521 11.684V16.78C159.521 16.864 159.577 16.92 159.661 16.92ZM182.085 3.508V19.86C182.085 19.944 182.029 20 181.945 20H178.865C178.781 20 178.725 19.944 178.725 19.86V3.508C178.725 3.424 178.669 3.368 178.585 3.368H173.405C173.321 3.368 173.265 3.312 173.265 3.228V0.427998C173.265 0.343999 173.321 0.287998 173.405 0.287998H187.405C187.489 0.287998 187.545 0.343999 187.545 0.427998V3.228C187.545 3.312 187.489 3.368 187.405 3.368H182.225C182.141 3.368 182.085 3.424 182.085 3.508ZM8.884 45.172C12.468 45.172 13.476 42.26 13.7 41.56C13.728 41.476 13.784 41.42 13.868 41.42H17.06C17.172 41.42 17.2 41.476 17.2 41.56C17.2 42.848 15.492 48.28 8.884 48.28C2.976 48.28 0.0640001 44.276 0.0640001 38.34C0.0640001 32.432 2.976 28.008 8.884 28.008C15.128 28.008 17.2 32.992 17.2 34.728C17.2 34.812 17.172 34.868 17.06 34.868H13.84C13.756 34.868 13.7 34.812 13.672 34.728C13.392 33.888 12.44 31.116 8.884 31.116C5.524 31.116 3.564 34.084 3.564 38.34C3.564 42.596 5.524 45.172 8.884 45.172ZM33.0515 43.94H25.1275C25.0435 43.94 24.9595 43.996 24.9315 44.08L24.7635 44.612L23.7275 47.86C23.6995 47.972 23.6155 48 23.5595 48H20.3395C20.2275 48 20.1715 47.888 20.1995 47.804L26.4155 28.428C26.4435 28.344 26.5275 28.288 26.5835 28.288H31.6235C31.6795 28.288 31.7635 28.344 31.7915 28.428L37.9795 47.804C38.0075 47.888 37.9515 48 37.8395 48H34.6195C34.5635 48 34.4795 47.944 34.4515 47.86L33.5275 44.92L33.2475 44.08C33.2195 43.996 33.1355 43.94 33.0515 43.94ZM28.9635 31.48L25.9955 40.72C25.9675 40.804 26.0235 40.86 26.1075 40.86H32.0995C32.1835 40.86 32.2115 40.804 32.1835 40.72L29.2435 31.48C29.1875 31.34 29.0195 31.34 28.9635 31.48ZM55.9179 34.364C55.9179 37.808 53.1739 40.44 50.0099 40.44H45.1379C45.0539 40.44 45.0259 40.468 45.0259 40.552V47.86C45.0259 47.944 44.9699 48 44.8859 48H41.8059C41.7219 48 41.6659 47.944 41.6659 47.86V28.428C41.6659 28.344 41.7219 28.288 41.8059 28.288H50.0099C53.1739 28.288 55.9179 30.948 55.9179 34.364ZM45.1659 37.36H49.7299C51.2139 37.36 52.5859 36.016 52.5859 34.364C52.5859 32.712 51.2139 31.368 49.7299 31.368H45.1379C45.0539 31.368 45.0259 31.424 45.0259 31.48V37.22C45.0259 37.304 45.0819 37.36 45.1659 37.36ZM62.5324 48H59.4524C59.3684 48 59.3124 47.944 59.3124 47.86V28.428C59.3124 28.344 59.3684 28.288 59.4524 28.288H62.5324C62.6164 28.288 62.6724 28.344 62.6724 28.428V47.86C62.6724 47.944 62.6164 48 62.5324 48ZM74.8732 31.508V47.86C74.8732 47.944 74.8172 48 74.7332 48H71.6532C71.5692 48 71.5132 47.944 71.5132 47.86V31.508C71.5132 31.424 71.4572 31.368 71.3732 31.368H66.1932C66.1092 31.368 66.0532 31.312 66.0532 31.228V28.428C66.0532 28.344 66.1092 28.288 66.1932 28.288H80.1932C80.2772 28.288 80.3332 28.344 80.3332 28.428V31.228C80.3332 31.312 80.2772 31.368 80.1932 31.368H75.0132C74.9292 31.368 74.8732 31.424 74.8732 31.508ZM94.3813 43.94H86.4573C86.3733 43.94 86.2893 43.996 86.2613 44.08L86.0933 44.612L85.0573 47.86C85.0293 47.972 84.9453 48 84.8893 48H81.6693C81.5573 48 81.5013 47.888 81.5293 47.804L87.7453 28.428C87.7733 28.344 87.8573 28.288 87.9133 28.288H92.9533C93.0093 28.288 93.0933 28.344 93.1213 28.428L99.3093 47.804C99.3373 47.888 99.2813 48 99.1693 48H95.9493C95.8933 48 95.8093 47.944 95.7813 47.86L94.8573 44.92L94.5773 44.08C94.5493 43.996 94.4653 43.94 94.3813 43.94ZM90.2933 31.48L87.3253 40.72C87.2973 40.804 87.3533 40.86 87.4373 40.86H93.4293C93.5133 40.86 93.5413 40.804 93.5133 40.72L90.5733 31.48C90.5173 31.34 90.3493 31.34 90.2933 31.48ZM115.876 48H103.024C102.94 48 102.884 47.944 102.884 47.86V28.428C102.884 28.344 102.94 28.288 103.024 28.288H106.104C106.188 28.288 106.244 28.344 106.244 28.428V44.808C106.244 44.892 106.272 44.92 106.356 44.92H115.876C115.96 44.92 116.016 44.976 116.016 45.06V47.86C116.016 47.944 115.96 48 115.876 48Z" fill="black"/>
</svg>